<?xml version="1.0" encoding="UTF-8"?>
<svg xmlns="http://www.w3.org/2000/svg" version="1.1" width="100" height="100" viewBox="0 0 100 100"><rect x="0" y="0" width="100" height="100" fill="#ffffff"/><g transform="scale(2.703)"><g transform="translate(0,0)"><path fill-rule="evenodd" d="M9 0L9 1L8 1L8 2L9 2L9 3L8 3L8 4L10 4L10 7L11 7L11 4L12 4L12 5L13 5L13 6L12 6L12 9L13 9L13 8L14 8L14 9L15 9L15 10L17 10L17 11L16 11L16 12L17 12L17 14L16 14L16 13L12 13L12 11L13 11L13 10L10 10L10 11L8 11L8 9L11 9L11 8L6 8L6 9L5 9L5 8L0 8L0 10L1 10L1 11L0 11L0 13L1 13L1 15L0 15L0 16L1 16L1 15L2 15L2 16L3 16L3 17L5 17L5 16L4 16L4 15L2 15L2 14L3 14L3 13L4 13L4 14L5 14L5 15L8 15L8 17L7 17L7 16L6 16L6 17L7 17L7 18L6 18L6 19L5 19L5 18L4 18L4 19L2 19L2 17L0 17L0 18L1 18L1 19L2 19L2 20L3 20L3 21L2 21L2 23L1 23L1 20L0 20L0 24L3 24L3 23L4 23L4 25L5 25L5 26L2 26L2 25L0 25L0 29L1 29L1 26L2 26L2 28L5 28L5 29L7 29L7 28L6 28L6 27L7 27L7 26L6 26L6 25L8 25L8 23L10 23L10 22L11 22L11 21L12 21L12 22L13 22L13 23L12 23L12 25L13 25L13 24L14 24L14 25L15 25L15 24L14 24L14 23L16 23L16 22L18 22L18 24L17 24L17 25L16 25L16 26L15 26L15 27L14 27L14 28L15 28L15 27L16 27L16 28L17 28L17 29L18 29L18 30L17 30L17 31L16 31L16 30L15 30L15 29L12 29L12 27L13 27L13 26L11 26L11 25L10 25L10 28L9 28L9 27L8 27L8 31L9 31L9 32L8 32L8 37L9 37L9 34L10 34L10 37L12 37L12 35L13 35L13 34L11 34L11 33L9 33L9 32L10 32L10 31L9 31L9 29L10 29L10 30L11 30L11 29L12 29L12 30L13 30L13 31L12 31L12 33L13 33L13 32L14 32L14 33L15 33L15 32L14 32L14 31L16 31L16 32L17 32L17 31L18 31L18 32L19 32L19 31L18 31L18 30L19 30L19 29L18 29L18 28L19 28L19 27L18 27L18 28L17 28L17 27L16 27L16 26L17 26L17 25L18 25L18 26L20 26L20 30L23 30L23 29L26 29L26 30L27 30L27 29L28 29L28 32L27 32L27 31L26 31L26 33L25 33L25 32L24 32L24 31L20 31L20 33L18 33L18 34L20 34L20 35L21 35L21 37L25 37L25 36L24 36L24 35L21 35L21 34L24 34L24 33L25 33L25 34L26 34L26 35L27 35L27 36L26 36L26 37L27 37L27 36L30 36L30 37L31 37L31 35L32 35L32 34L33 34L33 35L34 35L34 34L35 34L35 35L36 35L36 36L32 36L32 37L37 37L37 32L36 32L36 31L37 31L37 30L35 30L35 32L33 32L33 30L34 30L34 29L35 29L35 28L33 28L33 26L34 26L34 27L36 27L36 28L37 28L37 26L36 26L36 25L37 25L37 22L36 22L36 21L37 21L37 18L36 18L36 17L37 17L37 14L36 14L36 13L35 13L35 12L34 12L34 11L35 11L35 9L36 9L36 8L35 8L35 9L34 9L34 8L33 8L33 9L34 9L34 11L32 11L32 12L31 12L31 10L30 10L30 8L29 8L29 4L28 4L28 3L29 3L29 0L28 0L28 1L27 1L27 0L26 0L26 1L24 1L24 3L22 3L22 2L23 2L23 0L21 0L21 1L20 1L20 0L19 0L19 1L20 1L20 3L19 3L19 4L18 4L18 5L16 5L16 4L17 4L17 2L18 2L18 1L17 1L17 0L15 0L15 1L17 1L17 2L16 2L16 4L12 4L12 2L13 2L13 1L11 1L11 2L10 2L10 0ZM21 1L21 2L22 2L22 1ZM26 1L26 2L25 2L25 3L24 3L24 4L25 4L25 5L26 5L26 6L25 6L25 7L24 7L24 5L23 5L23 4L21 4L21 3L20 3L20 4L19 4L19 5L18 5L18 6L17 6L17 7L16 7L16 6L15 6L15 7L14 7L14 6L13 6L13 7L14 7L14 8L15 8L15 7L16 7L16 9L18 9L18 10L19 10L19 12L18 12L18 11L17 11L17 12L18 12L18 14L17 14L17 16L16 16L16 15L14 15L14 16L13 16L13 17L12 17L12 15L13 15L13 14L12 14L12 13L11 13L11 14L10 14L10 13L9 13L9 17L8 17L8 19L10 19L10 18L9 18L9 17L11 17L11 18L13 18L13 19L12 19L12 21L15 21L15 22L16 22L16 21L15 21L15 20L14 20L14 19L15 19L15 18L16 18L16 20L17 20L17 21L20 21L20 22L19 22L19 23L20 23L20 24L21 24L21 27L22 27L22 28L21 28L21 29L23 29L23 28L26 28L26 27L25 27L25 25L24 25L24 26L22 26L22 24L21 24L21 23L22 23L22 22L21 22L21 21L22 21L22 20L23 20L23 21L24 21L24 22L23 22L23 24L26 24L26 26L28 26L28 27L27 27L27 28L29 28L29 27L30 27L30 28L31 28L31 27L30 27L30 26L31 26L31 25L30 25L30 26L28 26L28 25L29 25L29 23L28 23L28 25L27 25L27 24L26 24L26 23L27 23L27 22L28 22L28 21L29 21L29 22L30 22L30 24L36 24L36 23L34 23L34 21L32 21L32 22L33 22L33 23L31 23L31 21L30 21L30 18L31 18L31 19L32 19L32 20L36 20L36 19L35 19L35 18L34 18L34 17L30 17L30 14L31 14L31 16L32 16L32 14L33 14L33 16L35 16L35 17L36 17L36 14L35 14L35 15L34 15L34 13L30 13L30 10L29 10L29 12L28 12L28 11L27 11L27 10L28 10L28 9L29 9L29 8L27 8L27 9L24 9L24 10L22 10L22 9L23 9L23 8L21 8L21 7L22 7L22 6L23 6L23 7L24 7L24 8L26 8L26 6L27 6L27 7L28 7L28 6L27 6L27 5L28 5L28 4L27 4L27 5L26 5L26 4L25 4L25 3L26 3L26 2L27 2L27 1ZM14 2L14 3L15 3L15 2ZM10 3L10 4L11 4L11 3ZM20 4L20 7L19 7L19 6L18 6L18 8L20 8L20 10L21 10L21 11L20 11L20 12L21 12L21 13L19 13L19 14L18 14L18 16L17 16L17 17L16 17L16 16L14 16L14 17L16 17L16 18L17 18L17 17L19 17L19 18L21 18L21 16L22 16L22 18L24 18L24 19L23 19L23 20L24 20L24 21L26 21L26 22L24 22L24 23L26 23L26 22L27 22L27 21L28 21L28 20L29 20L29 18L30 18L30 17L28 17L28 16L29 16L29 14L30 14L30 13L29 13L29 14L25 14L25 15L26 15L26 16L25 16L25 17L23 17L23 16L22 16L22 14L21 14L21 13L23 13L23 14L24 14L24 13L23 13L23 12L22 12L22 10L21 10L21 8L20 8L20 7L21 7L21 4ZM8 5L8 7L9 7L9 5ZM31 8L31 9L32 9L32 8ZM2 9L2 11L1 11L1 12L2 12L2 13L3 13L3 12L4 12L4 13L6 13L6 14L7 14L7 13L6 13L6 12L8 12L8 11L6 11L6 10L7 10L7 9L6 9L6 10L4 10L4 9ZM36 10L36 11L37 11L37 10ZM4 11L4 12L5 12L5 11ZM14 11L14 12L15 12L15 11ZM24 11L24 12L25 12L25 13L27 13L27 11L26 11L26 12L25 12L25 11ZM19 14L19 17L20 17L20 16L21 16L21 15L20 15L20 14ZM10 15L10 16L11 16L11 15ZM25 17L25 20L26 20L26 18L28 18L28 17ZM33 18L33 19L34 19L34 18ZM4 19L4 23L5 23L5 22L8 22L8 21L6 21L6 20L7 20L7 19L6 19L6 20L5 20L5 19ZM20 19L20 21L21 21L21 20L22 20L22 19ZM27 19L27 20L28 20L28 19ZM10 20L10 21L11 21L11 20ZM6 23L6 24L5 24L5 25L6 25L6 24L7 24L7 23ZM18 24L18 25L19 25L19 24ZM32 25L32 26L33 26L33 25ZM34 25L34 26L35 26L35 25ZM29 29L29 32L32 32L32 29ZM30 30L30 31L31 31L31 30ZM21 32L21 33L20 33L20 34L21 34L21 33L24 33L24 32ZM35 32L35 33L36 33L36 32ZM16 33L16 34L15 34L15 35L14 35L14 36L16 36L16 35L17 35L17 33ZM26 33L26 34L27 34L27 35L28 35L28 33ZM31 33L31 34L30 34L30 35L31 35L31 34L32 34L32 33ZM33 33L33 34L34 34L34 33ZM18 35L18 36L17 36L17 37L18 37L18 36L19 36L19 35ZM0 0L0 7L7 7L7 0ZM1 1L1 6L6 6L6 1ZM2 2L2 5L5 5L5 2ZM30 0L30 7L37 7L37 0ZM31 1L31 6L36 6L36 1ZM32 2L32 5L35 5L35 2ZM0 30L0 37L7 37L7 30ZM1 31L1 36L6 36L6 31ZM2 32L2 35L5 35L5 32Z" fill="#000000"/></g></g></svg>
